<svg xmlns="http://www.w3.org/2000/svg" viewBox="0 0 512 512" role="img" aria-label="Uzaedu">
  <defs>
    <linearGradient id="bg" x1="8%" y1="4%" x2="92%" y2="96%">
      <stop offset="0%" stop-color="#2dd4bf"/>
      <stop offset="38%" stop-color="#0d9488"/>
      <stop offset="100%" stop-color="#075985"/>
    </linearGradient>
    <radialGradient id="shine" cx="28%" cy="18%" r="55%">
      <stop offset="0%" stop-color="#99f6e4" stop-opacity="0.55"/>
      <stop offset="100%" stop-color="#0d9488" stop-opacity="0"/>
    </radialGradient>
    <linearGradient id="mark" x1="50%" y1="0%" x2="50%" y2="100%">
      <stop offset="0%" stop-color="#ffffff"/>
      <stop offset="100%" stop-color="#a5f3fc"/>
    </linearGradient>
    <filter id="glow" x="-50%" y="-50%" width="200%" height="200%">
      <feGaussianBlur stdDeviation="10" result="blur"/>
      <feMerge><feMergeNode in="blur"/><feMergeNode in="SourceGraphic"/></feMerge>
    </filter>
  </defs>
  <rect width="512" height="512" rx="132" fill="url(#bg)"/>
  <rect width="512" height="512" rx="132" fill="url(#shine)"/>
  <path d="M72 118 C72 72 108 48 156 48 H356 C404 48 440 72 440 118 V148 C440 248 368 312 256 328 C144 312 72 248 72 148 Z" fill="none" stroke="#ffffff" stroke-opacity="0.1" stroke-width="3"/>
  <path fill="url(#mark)" d="M178 156 C178 132 198 116 224 116 H288 C314 116 334 132 334 156 V188 C334 252 298 288 256 296 C214 288 178 252 178 188 Z M224 152 H288 V188 C288 228 264 252 256 252 C248 252 224 228 224 188 Z"/>
  <circle cx="388" cy="124" r="40" fill="#fb7185" filter="url(#glow)"/>
  <circle cx="388" cy="124" r="24" fill="#fecdd3" opacity="0.75"/>
</svg>